<mxfile host="app.diagrams.net" agent="Mozilla/5.0 (Macintosh; Intel Mac OS X 10_15_7) AppleWebKit/537.36 (KHTML, like Gecko) Chrome/131.0.0.0 Safari/537.36" version="25.0.3">
  <diagram name="第 1 页" id="g-R_MEyu0nCEMQKu7MIm">
    <mxGraphModel dx="1390" dy="1114" grid="1" gridSize="10" guides="1" tooltips="1" connect="1" arrows="1" fold="1" page="1" pageScale="1" pageWidth="827" pageHeight="1169" math="0" shadow="0">
      <root>
        <mxCell id="0" />
        <mxCell id="1" parent="0" />
        <mxCell id="U4hycx1jHfNzgr4IUAb9-1" style="edgeStyle=orthogonalEdgeStyle;rounded=0;sketch=1;orthogonalLoop=1;jettySize=auto;html=1;entryX=0.5;entryY=0;entryDx=0;entryDy=0;fontFamily=Helvetica;exitX=0.5;exitY=1;exitDx=0;exitDy=0;" edge="1" parent="1" source="U4hycx1jHfNzgr4IUAb9-7" target="U4hycx1jHfNzgr4IUAb9-13">
          <mxGeometry relative="1" as="geometry" />
        </mxCell>
        <mxCell id="U4hycx1jHfNzgr4IUAb9-2" style="edgeStyle=orthogonalEdgeStyle;rounded=0;sketch=1;orthogonalLoop=1;jettySize=auto;html=1;fontFamily=Helvetica;exitX=0.5;exitY=1;exitDx=0;exitDy=0;" edge="1" parent="1" source="U4hycx1jHfNzgr4IUAb9-7" target="U4hycx1jHfNzgr4IUAb9-15">
          <mxGeometry relative="1" as="geometry" />
        </mxCell>
        <mxCell id="U4hycx1jHfNzgr4IUAb9-3" style="edgeStyle=orthogonalEdgeStyle;rounded=0;sketch=1;orthogonalLoop=1;jettySize=auto;html=1;entryX=0.5;entryY=0;entryDx=0;entryDy=0;fontFamily=Helvetica;" edge="1" parent="1" source="U4hycx1jHfNzgr4IUAb9-7" target="U4hycx1jHfNzgr4IUAb9-10">
          <mxGeometry relative="1" as="geometry" />
        </mxCell>
        <mxCell id="U4hycx1jHfNzgr4IUAb9-4" style="edgeStyle=orthogonalEdgeStyle;rounded=0;sketch=1;orthogonalLoop=1;jettySize=auto;html=1;fontFamily=Helvetica;" edge="1" parent="1" source="U4hycx1jHfNzgr4IUAb9-7" target="U4hycx1jHfNzgr4IUAb9-14">
          <mxGeometry relative="1" as="geometry" />
        </mxCell>
        <mxCell id="U4hycx1jHfNzgr4IUAb9-5" style="edgeStyle=orthogonalEdgeStyle;rounded=0;sketch=1;orthogonalLoop=1;jettySize=auto;html=1;entryX=0.5;entryY=0;entryDx=0;entryDy=0;fontFamily=Helvetica;fontSize=18;dashed=1;" edge="1" parent="1" source="U4hycx1jHfNzgr4IUAb9-7" target="U4hycx1jHfNzgr4IUAb9-28">
          <mxGeometry relative="1" as="geometry" />
        </mxCell>
        <mxCell id="U4hycx1jHfNzgr4IUAb9-6" value="&lt;b&gt;&lt;font style=&quot;font-size: 14px;&quot;&gt;总体&lt;/font&gt;&lt;/b&gt;" style="edgeLabel;html=1;align=center;verticalAlign=middle;resizable=0;points=[];fontSize=18;fontFamily=Helvetica;" vertex="1" connectable="0" parent="U4hycx1jHfNzgr4IUAb9-5">
          <mxGeometry x="-0.0938" y="-3" relative="1" as="geometry">
            <mxPoint x="-78" as="offset" />
          </mxGeometry>
        </mxCell>
        <mxCell id="U4hycx1jHfNzgr4IUAb9-7" value="&lt;font style=&quot;font-size: 14px;&quot;&gt;&lt;b&gt;服务数字化权重树&lt;/b&gt;&lt;/font&gt;" style="rounded=1;whiteSpace=wrap;html=1;sketch=1;shadow=0;fillColor=#e1d5e7;strokeColor=#9673a6;strokeWidth=2;" vertex="1" parent="1">
          <mxGeometry x="744" y="960" width="120" height="60" as="geometry" />
        </mxCell>
        <mxCell id="U4hycx1jHfNzgr4IUAb9-8" style="edgeStyle=orthogonalEdgeStyle;rounded=0;orthogonalLoop=1;jettySize=auto;html=1;fontFamily=Helvetica;sketch=1;" edge="1" parent="1" source="U4hycx1jHfNzgr4IUAb9-10" target="U4hycx1jHfNzgr4IUAb9-20">
          <mxGeometry relative="1" as="geometry" />
        </mxCell>
        <mxCell id="U4hycx1jHfNzgr4IUAb9-9" style="edgeStyle=orthogonalEdgeStyle;rounded=0;sketch=1;orthogonalLoop=1;jettySize=auto;html=1;entryX=0.5;entryY=0;entryDx=0;entryDy=0;fontFamily=Helvetica;" edge="1" parent="1" source="U4hycx1jHfNzgr4IUAb9-10" target="U4hycx1jHfNzgr4IUAb9-21">
          <mxGeometry relative="1" as="geometry" />
        </mxCell>
        <mxCell id="U4hycx1jHfNzgr4IUAb9-10" value="&lt;font style=&quot;font-size: 13px;&quot;&gt;&lt;b&gt;质量&lt;br&gt;（权重：200）&lt;/b&gt;&lt;/font&gt;" style="rounded=1;whiteSpace=wrap;html=1;sketch=1;shadow=0;fillColor=#ffe6cc;strokeColor=#d79b00;strokeWidth=2;" vertex="1" parent="1">
          <mxGeometry x="634" y="1100" width="120" height="60" as="geometry" />
        </mxCell>
        <mxCell id="U4hycx1jHfNzgr4IUAb9-11" style="edgeStyle=orthogonalEdgeStyle;rounded=0;sketch=1;orthogonalLoop=1;jettySize=auto;html=1;entryX=0.5;entryY=0;entryDx=0;entryDy=0;dashed=1;fontFamily=Helvetica;fontSize=14;fontColor=#000000;" edge="1" parent="1" source="U4hycx1jHfNzgr4IUAb9-13" target="U4hycx1jHfNzgr4IUAb9-28">
          <mxGeometry relative="1" as="geometry" />
        </mxCell>
        <mxCell id="U4hycx1jHfNzgr4IUAb9-12" value="&lt;b&gt;维度&lt;/b&gt;" style="edgeLabel;html=1;align=center;verticalAlign=middle;resizable=0;points=[];fontSize=14;fontFamily=Helvetica;fontColor=#000000;" vertex="1" connectable="0" parent="U4hycx1jHfNzgr4IUAb9-11">
          <mxGeometry x="-0.0578" relative="1" as="geometry">
            <mxPoint x="32" as="offset" />
          </mxGeometry>
        </mxCell>
        <mxCell id="U4hycx1jHfNzgr4IUAb9-13" value="&lt;font style=&quot;font-size: 13px;&quot;&gt;&lt;b&gt;先进性&lt;br&gt;（权重：100）&lt;/b&gt;&lt;/font&gt;" style="rounded=1;whiteSpace=wrap;html=1;sketch=1;shadow=0;fillColor=#ffe6cc;strokeColor=#d79b00;strokeWidth=2;" vertex="1" parent="1">
          <mxGeometry x="434" y="1100" width="120" height="60" as="geometry" />
        </mxCell>
        <mxCell id="U4hycx1jHfNzgr4IUAb9-14" value="&lt;font style=&quot;font-size: 13px;&quot;&gt;&lt;b&gt;成本&lt;br&gt;（权重：100）&lt;/b&gt;&lt;/font&gt;" style="rounded=1;whiteSpace=wrap;html=1;sketch=1;shadow=0;fillColor=#ffe6cc;strokeColor=#d79b00;strokeWidth=2;" vertex="1" parent="1">
          <mxGeometry x="844" y="1100" width="120" height="60" as="geometry" />
        </mxCell>
        <mxCell id="U4hycx1jHfNzgr4IUAb9-15" value="&lt;font style=&quot;font-size: 13px;&quot;&gt;&lt;b&gt;用户体验&lt;br&gt;（权重：100）&lt;/b&gt;&lt;/font&gt;" style="rounded=1;whiteSpace=wrap;html=1;sketch=1;shadow=0;fillColor=#ffe6cc;strokeColor=#d79b00;strokeWidth=2;" vertex="1" parent="1">
          <mxGeometry x="1044" y="1100" width="120" height="60" as="geometry" />
        </mxCell>
        <mxCell id="U4hycx1jHfNzgr4IUAb9-16" style="edgeStyle=orthogonalEdgeStyle;rounded=0;sketch=1;orthogonalLoop=1;jettySize=auto;html=1;entryX=0.5;entryY=0;entryDx=0;entryDy=0;fontFamily=Helvetica;" edge="1" parent="1" source="U4hycx1jHfNzgr4IUAb9-20" target="U4hycx1jHfNzgr4IUAb9-24">
          <mxGeometry relative="1" as="geometry" />
        </mxCell>
        <mxCell id="U4hycx1jHfNzgr4IUAb9-17" style="edgeStyle=orthogonalEdgeStyle;rounded=0;sketch=1;orthogonalLoop=1;jettySize=auto;html=1;fontFamily=Helvetica;" edge="1" parent="1" source="U4hycx1jHfNzgr4IUAb9-20" target="U4hycx1jHfNzgr4IUAb9-27">
          <mxGeometry relative="1" as="geometry" />
        </mxCell>
        <mxCell id="U4hycx1jHfNzgr4IUAb9-18" value="" style="edgeStyle=orthogonalEdgeStyle;rounded=0;sketch=1;orthogonalLoop=1;jettySize=auto;html=1;entryX=0.5;entryY=1;entryDx=0;entryDy=0;dashed=1;fontFamily=Helvetica;fontSize=14;fontColor=#000000;" edge="1" parent="1" source="U4hycx1jHfNzgr4IUAb9-20" target="U4hycx1jHfNzgr4IUAb9-29">
          <mxGeometry relative="1" as="geometry" />
        </mxCell>
        <mxCell id="U4hycx1jHfNzgr4IUAb9-19" value="&lt;b&gt;&lt;font style=&quot;font-size: 14px;&quot;&gt;分类&lt;/font&gt;&lt;/b&gt;" style="edgeLabel;html=1;align=center;verticalAlign=middle;resizable=0;points=[];" vertex="1" connectable="0" parent="U4hycx1jHfNzgr4IUAb9-18">
          <mxGeometry x="0.1349" y="-4" relative="1" as="geometry">
            <mxPoint x="-10" y="2" as="offset" />
          </mxGeometry>
        </mxCell>
        <mxCell id="U4hycx1jHfNzgr4IUAb9-20" value="&lt;b&gt;运行时&lt;br&gt;（权重：300）&lt;/b&gt;" style="rounded=1;whiteSpace=wrap;html=1;sketch=1;shadow=0;fillColor=#d5e8d4;strokeColor=#82b366;strokeWidth=2;" vertex="1" parent="1">
          <mxGeometry x="564" y="1230" width="100" height="40" as="geometry" />
        </mxCell>
        <mxCell id="U4hycx1jHfNzgr4IUAb9-21" value="&lt;b&gt;坏味道&lt;br&gt;（权重：100）&lt;/b&gt;" style="rounded=1;whiteSpace=wrap;html=1;sketch=1;shadow=0;fillColor=#d5e8d4;strokeColor=#82b366;strokeWidth=2;" vertex="1" parent="1">
          <mxGeometry x="724" y="1230" width="100" height="40" as="geometry" />
        </mxCell>
        <mxCell id="U4hycx1jHfNzgr4IUAb9-22" style="edgeStyle=orthogonalEdgeStyle;rounded=0;sketch=1;orthogonalLoop=1;jettySize=auto;html=1;entryX=0.5;entryY=1;entryDx=0;entryDy=0;dashed=1;fontFamily=Helvetica;fontSize=16;fontColor=#000000;" edge="1" parent="1" source="U4hycx1jHfNzgr4IUAb9-24" target="U4hycx1jHfNzgr4IUAb9-29">
          <mxGeometry relative="1" as="geometry" />
        </mxCell>
        <mxCell id="U4hycx1jHfNzgr4IUAb9-23" value="&lt;font style=&quot;font-size: 14px;&quot;&gt;&lt;b&gt;指标&lt;/b&gt;&lt;/font&gt;" style="edgeLabel;html=1;align=center;verticalAlign=middle;resizable=0;points=[];fontSize=16;fontFamily=Helvetica;fontColor=#000000;" vertex="1" connectable="0" parent="U4hycx1jHfNzgr4IUAb9-22">
          <mxGeometry x="-0.2889" y="-1" relative="1" as="geometry">
            <mxPoint x="-3" as="offset" />
          </mxGeometry>
        </mxCell>
        <mxCell id="U4hycx1jHfNzgr4IUAb9-24" value="&lt;b&gt;慢查询&lt;br&gt;（等级：P2）&lt;/b&gt;" style="rounded=1;whiteSpace=wrap;html=1;sketch=1;shadow=0;fillColor=#ffe6cc;strokeColor=#d79b00;strokeWidth=2;" vertex="1" parent="1">
          <mxGeometry x="524" y="1350" width="80" height="40" as="geometry" />
        </mxCell>
        <mxCell id="U4hycx1jHfNzgr4IUAb9-25" style="edgeStyle=orthogonalEdgeStyle;rounded=0;sketch=1;orthogonalLoop=1;jettySize=auto;html=1;dashed=1;fontFamily=Helvetica;fontSize=14;fontColor=#000000;entryX=-0.002;entryY=0.3;entryDx=0;entryDy=0;entryPerimeter=0;" edge="1" parent="1" source="U4hycx1jHfNzgr4IUAb9-27" target="U4hycx1jHfNzgr4IUAb9-53">
          <mxGeometry relative="1" as="geometry">
            <mxPoint x="844" y="1370" as="targetPoint" />
          </mxGeometry>
        </mxCell>
        <mxCell id="U4hycx1jHfNzgr4IUAb9-26" value="&lt;b style=&quot;font-size: 14px;&quot;&gt;指标评分&lt;/b&gt;" style="edgeLabel;html=1;align=center;verticalAlign=middle;resizable=0;points=[];" vertex="1" connectable="0" parent="U4hycx1jHfNzgr4IUAb9-25">
          <mxGeometry x="-0.0096" y="-2" relative="1" as="geometry">
            <mxPoint x="-1" y="-4" as="offset" />
          </mxGeometry>
        </mxCell>
        <mxCell id="U4hycx1jHfNzgr4IUAb9-27" value="&lt;b&gt;Bug数&lt;br&gt;（等级：P1）&lt;/b&gt;" style="rounded=1;whiteSpace=wrap;html=1;sketch=1;shadow=0;fillColor=#ffe6cc;strokeColor=#d79b00;strokeWidth=2;" vertex="1" parent="1">
          <mxGeometry x="634" y="1350" width="80" height="40" as="geometry" />
        </mxCell>
        <mxCell id="U4hycx1jHfNzgr4IUAb9-28" value="服务得分" style="swimlane;fontStyle=1;childLayout=stackLayout;horizontal=1;startSize=30;horizontalStack=0;resizeParent=1;resizeParentMax=0;resizeLast=0;collapsible=1;marginBottom=0;shadow=0;sketch=1;strokeWidth=2;fontFamily=Helvetica;fontSize=16;fillColor=#dae8fc;strokeColor=#6c8ebf;" vertex="1" collapsed="1" parent="1">
          <mxGeometry x="240" y="1150" width="110" height="40" as="geometry">
            <mxRectangle x="-154" y="310" width="140" height="60" as="alternateBounds" />
          </mxGeometry>
        </mxCell>
        <mxCell id="U4hycx1jHfNzgr4IUAb9-29" value="部门得分" style="swimlane;fontStyle=1;childLayout=stackLayout;horizontal=1;startSize=30;horizontalStack=0;resizeParent=1;resizeParentMax=0;resizeLast=0;collapsible=1;marginBottom=0;shadow=0;sketch=1;strokeWidth=2;fontFamily=Helvetica;fontSize=16;fillColor=#dae8fc;strokeColor=#6c8ebf;" vertex="1" collapsed="1" parent="1">
          <mxGeometry x="240" y="1190" width="110" height="40" as="geometry">
            <mxRectangle x="-154" y="350" width="140" height="60" as="alternateBounds" />
          </mxGeometry>
        </mxCell>
        <mxCell id="U4hycx1jHfNzgr4IUAb9-30" value="" style="shape=curlyBracket;whiteSpace=wrap;html=1;rounded=1;shadow=0;sketch=1;strokeWidth=2;fontFamily=Helvetica;fontSize=14;" vertex="1" parent="1">
          <mxGeometry x="283" y="1438" width="20" height="100" as="geometry" />
        </mxCell>
        <mxCell id="U4hycx1jHfNzgr4IUAb9-31" value="&lt;ul style=&quot;line-height: 2;&quot;&gt;&lt;li&gt;&lt;b style=&quot;background-color: initial;&quot;&gt;分类得分：（指标1得分 + 指标2得分） /&amp;nbsp; （指标1总分 + 指标2总分）*&amp;nbsp; 100%&lt;/b&gt;&lt;br&gt;&lt;/li&gt;&lt;li&gt;&lt;b&gt;维度得分：（分类1得分 * 权重 + 分类2得分 * 权重）/ （分类1满分 * 权重 + 分类2满分 * 权重）&lt;/b&gt;&lt;b style=&quot;background-color: initial;&quot;&gt;*&amp;nbsp; 100%&lt;/b&gt;&lt;/li&gt;&lt;li&gt;&lt;b&gt;总体得分：（维度1得分 * 权重 + 维度2得分 * 权重）/ （维度1满分 * 权重 + 维度2满分 * 权重）&lt;/b&gt;&lt;b style=&quot;background-color: initial;&quot;&gt;*&amp;nbsp; 100%&lt;/b&gt;&lt;/li&gt;&lt;/ul&gt;" style="text;strokeColor=none;fillColor=none;html=1;whiteSpace=wrap;verticalAlign=middle;overflow=hidden;shadow=0;sketch=1;strokeWidth=2;fontFamily=Helvetica;fontSize=14;" vertex="1" parent="1">
          <mxGeometry x="293" y="1420" width="730" height="130" as="geometry" />
        </mxCell>
        <mxCell id="U4hycx1jHfNzgr4IUAb9-32" value="指标得分评估表" style="shape=table;startSize=30;container=1;collapsible=0;childLayout=tableLayout;fontStyle=1;align=center;shadow=0;sketch=1;strokeWidth=2;fontFamily=Helvetica;fontSize=14;fillColor=#dae8fc;strokeColor=#6c8ebf;" vertex="1" parent="1">
          <mxGeometry x="854" y="1193" width="530" height="198" as="geometry" />
        </mxCell>
        <mxCell id="U4hycx1jHfNzgr4IUAb9-33" value="" style="shape=tableRow;horizontal=0;startSize=0;swimlaneHead=0;swimlaneBody=0;top=0;left=0;bottom=0;right=0;collapsible=0;dropTarget=0;fillColor=none;points=[[0,0.5],[1,0.5]];portConstraint=eastwest;shadow=0;sketch=1;strokeWidth=2;fontFamily=Helvetica;fontSize=14;fontColor=#000000;fontStyle=1" vertex="1" parent="U4hycx1jHfNzgr4IUAb9-32">
          <mxGeometry y="30" width="530" height="40" as="geometry" />
        </mxCell>
        <mxCell id="U4hycx1jHfNzgr4IUAb9-34" value="" style="shape=partialRectangle;html=1;whiteSpace=wrap;connectable=0;fillColor=none;top=0;left=0;bottom=0;right=0;overflow=hidden;shadow=0;sketch=1;strokeWidth=2;fontFamily=Helvetica;fontSize=14;fontColor=#000000;fontStyle=1" vertex="1" parent="U4hycx1jHfNzgr4IUAb9-33">
          <mxGeometry width="133" height="40" as="geometry">
            <mxRectangle width="133" height="40" as="alternateBounds" />
          </mxGeometry>
        </mxCell>
        <mxCell id="U4hycx1jHfNzgr4IUAb9-35" value="P3指标&lt;br&gt;（普通，权重 1）" style="shape=partialRectangle;html=1;whiteSpace=wrap;connectable=0;fillColor=none;top=0;left=0;bottom=0;right=0;overflow=hidden;shadow=0;sketch=1;strokeWidth=2;fontFamily=Helvetica;fontSize=14;fontColor=#000000;fontStyle=1" vertex="1" parent="U4hycx1jHfNzgr4IUAb9-33">
          <mxGeometry x="133" width="132" height="40" as="geometry">
            <mxRectangle width="132" height="40" as="alternateBounds" />
          </mxGeometry>
        </mxCell>
        <mxCell id="U4hycx1jHfNzgr4IUAb9-36" value="P2指标&lt;br&gt;（重要，权重2）" style="shape=partialRectangle;html=1;whiteSpace=wrap;connectable=0;fillColor=none;top=0;left=0;bottom=0;right=0;overflow=hidden;shadow=0;sketch=1;strokeWidth=2;fontFamily=Helvetica;fontSize=14;fontColor=#000000;fontStyle=1" vertex="1" parent="U4hycx1jHfNzgr4IUAb9-33">
          <mxGeometry x="265" width="133" height="40" as="geometry">
            <mxRectangle width="133" height="40" as="alternateBounds" />
          </mxGeometry>
        </mxCell>
        <mxCell id="U4hycx1jHfNzgr4IUAb9-37" value="P1指标&lt;br&gt;（核心，权重3）" style="shape=partialRectangle;html=1;whiteSpace=wrap;connectable=0;fillColor=none;top=0;left=0;bottom=0;right=0;overflow=hidden;shadow=0;sketch=1;strokeWidth=2;fontFamily=Helvetica;fontSize=14;fontColor=#000000;fontStyle=1" vertex="1" parent="U4hycx1jHfNzgr4IUAb9-33">
          <mxGeometry x="398" width="132" height="40" as="geometry">
            <mxRectangle width="132" height="40" as="alternateBounds" />
          </mxGeometry>
        </mxCell>
        <mxCell id="U4hycx1jHfNzgr4IUAb9-38" value="" style="shape=tableRow;horizontal=0;startSize=0;swimlaneHead=0;swimlaneBody=0;top=0;left=0;bottom=0;right=0;collapsible=0;dropTarget=0;fillColor=none;points=[[0,0.5],[1,0.5]];portConstraint=eastwest;shadow=0;sketch=1;strokeWidth=2;fontFamily=Helvetica;fontSize=14;fontColor=#000000;fontStyle=1" vertex="1" parent="U4hycx1jHfNzgr4IUAb9-32">
          <mxGeometry y="70" width="530" height="32" as="geometry" />
        </mxCell>
        <mxCell id="U4hycx1jHfNzgr4IUAb9-39" value="卓越（100分）" style="shape=partialRectangle;html=1;whiteSpace=wrap;connectable=0;fillColor=none;top=0;left=0;bottom=0;right=0;overflow=hidden;shadow=0;sketch=1;strokeWidth=2;fontFamily=Helvetica;fontSize=14;fontColor=#000000;fontStyle=1" vertex="1" parent="U4hycx1jHfNzgr4IUAb9-38">
          <mxGeometry width="133" height="32" as="geometry">
            <mxRectangle width="133" height="32" as="alternateBounds" />
          </mxGeometry>
        </mxCell>
        <mxCell id="U4hycx1jHfNzgr4IUAb9-40" value="100 * 1" style="shape=partialRectangle;html=1;whiteSpace=wrap;connectable=0;fillColor=none;top=0;left=0;bottom=0;right=0;overflow=hidden;shadow=0;sketch=1;strokeWidth=2;fontFamily=Helvetica;fontSize=14;fontColor=#000000;fontStyle=1" vertex="1" parent="U4hycx1jHfNzgr4IUAb9-38">
          <mxGeometry x="133" width="132" height="32" as="geometry">
            <mxRectangle width="132" height="32" as="alternateBounds" />
          </mxGeometry>
        </mxCell>
        <mxCell id="U4hycx1jHfNzgr4IUAb9-41" value="100 * 2" style="shape=partialRectangle;html=1;whiteSpace=wrap;connectable=0;fillColor=none;top=0;left=0;bottom=0;right=0;overflow=hidden;shadow=0;sketch=1;strokeWidth=2;fontFamily=Helvetica;fontSize=14;fontColor=#000000;fontStyle=1" vertex="1" parent="U4hycx1jHfNzgr4IUAb9-38">
          <mxGeometry x="265" width="133" height="32" as="geometry">
            <mxRectangle width="133" height="32" as="alternateBounds" />
          </mxGeometry>
        </mxCell>
        <mxCell id="U4hycx1jHfNzgr4IUAb9-42" value="100 * 3" style="shape=partialRectangle;html=1;whiteSpace=wrap;connectable=0;fillColor=none;top=0;left=0;bottom=0;right=0;overflow=hidden;shadow=0;sketch=1;strokeWidth=2;fontFamily=Helvetica;fontSize=14;fontColor=#000000;fontStyle=1" vertex="1" parent="U4hycx1jHfNzgr4IUAb9-38">
          <mxGeometry x="398" width="132" height="32" as="geometry">
            <mxRectangle width="132" height="32" as="alternateBounds" />
          </mxGeometry>
        </mxCell>
        <mxCell id="U4hycx1jHfNzgr4IUAb9-43" value="" style="shape=tableRow;horizontal=0;startSize=0;swimlaneHead=0;swimlaneBody=0;top=0;left=0;bottom=0;right=0;collapsible=0;dropTarget=0;fillColor=none;points=[[0,0.5],[1,0.5]];portConstraint=eastwest;shadow=0;sketch=1;strokeWidth=2;fontFamily=Helvetica;fontSize=14;fontColor=#000000;fontStyle=1" vertex="1" parent="U4hycx1jHfNzgr4IUAb9-32">
          <mxGeometry y="102" width="530" height="32" as="geometry" />
        </mxCell>
        <mxCell id="U4hycx1jHfNzgr4IUAb9-44" value="优秀（80分）" style="shape=partialRectangle;html=1;whiteSpace=wrap;connectable=0;fillColor=none;top=0;left=0;bottom=0;right=0;overflow=hidden;shadow=0;sketch=1;strokeWidth=2;fontFamily=Helvetica;fontSize=14;fontColor=#000000;fontStyle=1" vertex="1" parent="U4hycx1jHfNzgr4IUAb9-43">
          <mxGeometry width="133" height="32" as="geometry">
            <mxRectangle width="133" height="32" as="alternateBounds" />
          </mxGeometry>
        </mxCell>
        <mxCell id="U4hycx1jHfNzgr4IUAb9-45" value="80 * 1" style="shape=partialRectangle;html=1;whiteSpace=wrap;connectable=0;fillColor=none;top=0;left=0;bottom=0;right=0;overflow=hidden;shadow=0;sketch=1;strokeWidth=2;fontFamily=Helvetica;fontSize=14;fontColor=#000000;fontStyle=1" vertex="1" parent="U4hycx1jHfNzgr4IUAb9-43">
          <mxGeometry x="133" width="132" height="32" as="geometry">
            <mxRectangle width="132" height="32" as="alternateBounds" />
          </mxGeometry>
        </mxCell>
        <mxCell id="U4hycx1jHfNzgr4IUAb9-46" value="80 * 2" style="shape=partialRectangle;html=1;whiteSpace=wrap;connectable=0;fillColor=none;top=0;left=0;bottom=0;right=0;overflow=hidden;shadow=0;sketch=1;strokeWidth=2;fontFamily=Helvetica;fontSize=14;fontColor=#000000;fontStyle=1" vertex="1" parent="U4hycx1jHfNzgr4IUAb9-43">
          <mxGeometry x="265" width="133" height="32" as="geometry">
            <mxRectangle width="133" height="32" as="alternateBounds" />
          </mxGeometry>
        </mxCell>
        <mxCell id="U4hycx1jHfNzgr4IUAb9-47" value="80 * 3" style="shape=partialRectangle;html=1;whiteSpace=wrap;connectable=0;fillColor=none;top=0;left=0;bottom=0;right=0;overflow=hidden;shadow=0;sketch=1;strokeWidth=2;fontFamily=Helvetica;fontSize=14;fontColor=#000000;fontStyle=1" vertex="1" parent="U4hycx1jHfNzgr4IUAb9-43">
          <mxGeometry x="398" width="132" height="32" as="geometry">
            <mxRectangle width="132" height="32" as="alternateBounds" />
          </mxGeometry>
        </mxCell>
        <mxCell id="U4hycx1jHfNzgr4IUAb9-48" style="shape=tableRow;horizontal=0;startSize=0;swimlaneHead=0;swimlaneBody=0;top=0;left=0;bottom=0;right=0;collapsible=0;dropTarget=0;fillColor=none;points=[[0,0.5],[1,0.5]];portConstraint=eastwest;shadow=0;sketch=1;strokeWidth=2;fontFamily=Helvetica;fontSize=14;fontColor=#000000;fontStyle=1" vertex="1" parent="U4hycx1jHfNzgr4IUAb9-32">
          <mxGeometry y="134" width="530" height="32" as="geometry" />
        </mxCell>
        <mxCell id="U4hycx1jHfNzgr4IUAb9-49" value="达标（60分）" style="shape=partialRectangle;html=1;whiteSpace=wrap;connectable=0;fillColor=none;top=0;left=0;bottom=0;right=0;overflow=hidden;shadow=0;sketch=1;strokeWidth=2;fontFamily=Helvetica;fontSize=14;fontColor=#000000;fontStyle=1" vertex="1" parent="U4hycx1jHfNzgr4IUAb9-48">
          <mxGeometry width="133" height="32" as="geometry">
            <mxRectangle width="133" height="32" as="alternateBounds" />
          </mxGeometry>
        </mxCell>
        <mxCell id="U4hycx1jHfNzgr4IUAb9-50" value="60 * 1" style="shape=partialRectangle;html=1;whiteSpace=wrap;connectable=0;fillColor=none;top=0;left=0;bottom=0;right=0;overflow=hidden;shadow=0;sketch=1;strokeWidth=2;fontFamily=Helvetica;fontSize=14;fontColor=#000000;fontStyle=1" vertex="1" parent="U4hycx1jHfNzgr4IUAb9-48">
          <mxGeometry x="133" width="132" height="32" as="geometry">
            <mxRectangle width="132" height="32" as="alternateBounds" />
          </mxGeometry>
        </mxCell>
        <mxCell id="U4hycx1jHfNzgr4IUAb9-51" value="60 * 2" style="shape=partialRectangle;html=1;whiteSpace=wrap;connectable=0;fillColor=none;top=0;left=0;bottom=0;right=0;overflow=hidden;shadow=0;sketch=1;strokeWidth=2;fontFamily=Helvetica;fontSize=14;fontColor=#000000;fontStyle=1" vertex="1" parent="U4hycx1jHfNzgr4IUAb9-48">
          <mxGeometry x="265" width="133" height="32" as="geometry">
            <mxRectangle width="133" height="32" as="alternateBounds" />
          </mxGeometry>
        </mxCell>
        <mxCell id="U4hycx1jHfNzgr4IUAb9-52" value="60 * 3" style="shape=partialRectangle;html=1;whiteSpace=wrap;connectable=0;fillColor=none;top=0;left=0;bottom=0;right=0;overflow=hidden;shadow=0;sketch=1;strokeWidth=2;fontFamily=Helvetica;fontSize=14;fontColor=#000000;fontStyle=1" vertex="1" parent="U4hycx1jHfNzgr4IUAb9-48">
          <mxGeometry x="398" width="132" height="32" as="geometry">
            <mxRectangle width="132" height="32" as="alternateBounds" />
          </mxGeometry>
        </mxCell>
        <mxCell id="U4hycx1jHfNzgr4IUAb9-53" style="shape=tableRow;horizontal=0;startSize=0;swimlaneHead=0;swimlaneBody=0;top=0;left=0;bottom=0;right=0;collapsible=0;dropTarget=0;fillColor=none;points=[[0,0.5],[1,0.5]];portConstraint=eastwest;shadow=0;sketch=1;strokeWidth=2;fontFamily=Helvetica;fontSize=14;fontColor=#000000;fontStyle=1" vertex="1" parent="U4hycx1jHfNzgr4IUAb9-32">
          <mxGeometry y="166" width="530" height="32" as="geometry" />
        </mxCell>
        <mxCell id="U4hycx1jHfNzgr4IUAb9-54" value="不及格（0分）" style="shape=partialRectangle;html=1;whiteSpace=wrap;connectable=0;fillColor=none;top=0;left=0;bottom=0;right=0;overflow=hidden;shadow=0;sketch=1;strokeWidth=2;fontFamily=Helvetica;fontSize=14;fontColor=#000000;fontStyle=1" vertex="1" parent="U4hycx1jHfNzgr4IUAb9-53">
          <mxGeometry width="133" height="32" as="geometry">
            <mxRectangle width="133" height="32" as="alternateBounds" />
          </mxGeometry>
        </mxCell>
        <mxCell id="U4hycx1jHfNzgr4IUAb9-55" value="0" style="shape=partialRectangle;html=1;whiteSpace=wrap;connectable=0;fillColor=none;top=0;left=0;bottom=0;right=0;overflow=hidden;shadow=0;sketch=1;strokeWidth=2;fontFamily=Helvetica;fontSize=14;fontColor=#000000;fontStyle=1" vertex="1" parent="U4hycx1jHfNzgr4IUAb9-53">
          <mxGeometry x="133" width="132" height="32" as="geometry">
            <mxRectangle width="132" height="32" as="alternateBounds" />
          </mxGeometry>
        </mxCell>
        <mxCell id="U4hycx1jHfNzgr4IUAb9-56" value="0" style="shape=partialRectangle;html=1;whiteSpace=wrap;connectable=0;fillColor=none;top=0;left=0;bottom=0;right=0;overflow=hidden;shadow=0;sketch=1;strokeWidth=2;fontFamily=Helvetica;fontSize=14;fontColor=#000000;fontStyle=1" vertex="1" parent="U4hycx1jHfNzgr4IUAb9-53">
          <mxGeometry x="265" width="133" height="32" as="geometry">
            <mxRectangle width="133" height="32" as="alternateBounds" />
          </mxGeometry>
        </mxCell>
        <mxCell id="U4hycx1jHfNzgr4IUAb9-57" value="0" style="shape=partialRectangle;html=1;whiteSpace=wrap;connectable=0;fillColor=none;top=0;left=0;bottom=0;right=0;overflow=hidden;shadow=0;sketch=1;strokeWidth=2;fontFamily=Helvetica;fontSize=14;fontColor=#000000;fontStyle=1" vertex="1" parent="U4hycx1jHfNzgr4IUAb9-53">
          <mxGeometry x="398" width="132" height="32" as="geometry">
            <mxRectangle width="132" height="32" as="alternateBounds" />
          </mxGeometry>
        </mxCell>
        <mxCell id="U4hycx1jHfNzgr4IUAb9-58" value="" style="rounded=0;whiteSpace=wrap;html=1;fillColor=#e1d5e7;strokeColor=#9673a6;" vertex="1" parent="1">
          <mxGeometry x="240" y="470" width="760" height="150" as="geometry" />
        </mxCell>
        <mxCell id="U4hycx1jHfNzgr4IUAb9-59" value="" style="rounded=0;whiteSpace=wrap;html=1;fillColor=#d5e8d4;strokeColor=#82b366;" vertex="1" parent="1">
          <mxGeometry x="240" y="240" width="760" height="230" as="geometry" />
        </mxCell>
        <mxCell id="U4hycx1jHfNzgr4IUAb9-60" value="" style="group" vertex="1" connectable="0" parent="1">
          <mxGeometry x="800" y="260" width="170" height="190" as="geometry" />
        </mxCell>
        <mxCell id="U4hycx1jHfNzgr4IUAb9-61" value="" style="rounded=1;whiteSpace=wrap;html=1;fillColor=none;" vertex="1" parent="U4hycx1jHfNzgr4IUAb9-60">
          <mxGeometry width="170" height="190" as="geometry" />
        </mxCell>
        <mxCell id="U4hycx1jHfNzgr4IUAb9-62" value="" style="rounded=0;whiteSpace=wrap;html=1;fillColor=none;dashed=1;" vertex="1" parent="U4hycx1jHfNzgr4IUAb9-60">
          <mxGeometry x="10" y="31" width="150" height="70" as="geometry" />
        </mxCell>
        <mxCell id="U4hycx1jHfNzgr4IUAb9-63" value="指标9" style="rounded=0;whiteSpace=wrap;html=1;" vertex="1" parent="U4hycx1jHfNzgr4IUAb9-60">
          <mxGeometry x="20" y="61" width="60" height="30" as="geometry" />
        </mxCell>
        <mxCell id="U4hycx1jHfNzgr4IUAb9-64" value="指标10" style="rounded=0;whiteSpace=wrap;html=1;" vertex="1" parent="U4hycx1jHfNzgr4IUAb9-60">
          <mxGeometry x="90" y="61" width="60" height="30" as="geometry" />
        </mxCell>
        <mxCell id="U4hycx1jHfNzgr4IUAb9-65" value="分类5" style="text;html=1;align=center;verticalAlign=middle;resizable=0;points=[];autosize=1;strokeColor=none;fillColor=none;" vertex="1" parent="U4hycx1jHfNzgr4IUAb9-60">
          <mxGeometry x="60" y="31" width="50" height="30" as="geometry" />
        </mxCell>
        <mxCell id="U4hycx1jHfNzgr4IUAb9-66" value="" style="rounded=0;whiteSpace=wrap;html=1;fillColor=none;dashed=1;" vertex="1" parent="U4hycx1jHfNzgr4IUAb9-60">
          <mxGeometry x="10" y="110" width="150" height="70" as="geometry" />
        </mxCell>
        <mxCell id="U4hycx1jHfNzgr4IUAb9-67" value="指标11" style="rounded=0;whiteSpace=wrap;html=1;" vertex="1" parent="U4hycx1jHfNzgr4IUAb9-60">
          <mxGeometry x="20" y="140" width="60" height="30" as="geometry" />
        </mxCell>
        <mxCell id="U4hycx1jHfNzgr4IUAb9-68" value="指标12" style="rounded=0;whiteSpace=wrap;html=1;" vertex="1" parent="U4hycx1jHfNzgr4IUAb9-60">
          <mxGeometry x="90" y="140" width="60" height="30" as="geometry" />
        </mxCell>
        <mxCell id="U4hycx1jHfNzgr4IUAb9-69" value="分类6" style="text;html=1;align=center;verticalAlign=middle;resizable=0;points=[];autosize=1;strokeColor=none;fillColor=none;" vertex="1" parent="U4hycx1jHfNzgr4IUAb9-60">
          <mxGeometry x="60" y="110" width="50" height="30" as="geometry" />
        </mxCell>
        <mxCell id="U4hycx1jHfNzgr4IUAb9-70" value="维度3" style="text;html=1;align=center;verticalAlign=middle;resizable=0;points=[];autosize=1;strokeColor=none;fillColor=none;" vertex="1" parent="U4hycx1jHfNzgr4IUAb9-60">
          <mxGeometry x="60" width="50" height="30" as="geometry" />
        </mxCell>
        <mxCell id="U4hycx1jHfNzgr4IUAb9-71" value="" style="group" vertex="1" connectable="0" parent="1">
          <mxGeometry x="320" y="260" width="170" height="190" as="geometry" />
        </mxCell>
        <mxCell id="U4hycx1jHfNzgr4IUAb9-72" value="" style="rounded=0;whiteSpace=wrap;html=1;fillColor=none;dashed=1;" vertex="1" parent="U4hycx1jHfNzgr4IUAb9-71">
          <mxGeometry x="10" y="31" width="150" height="70" as="geometry" />
        </mxCell>
        <mxCell id="U4hycx1jHfNzgr4IUAb9-73" value="指标1" style="rounded=0;whiteSpace=wrap;html=1;" vertex="1" parent="U4hycx1jHfNzgr4IUAb9-71">
          <mxGeometry x="20" y="61" width="60" height="30" as="geometry" />
        </mxCell>
        <mxCell id="U4hycx1jHfNzgr4IUAb9-74" value="指标2" style="rounded=0;whiteSpace=wrap;html=1;" vertex="1" parent="U4hycx1jHfNzgr4IUAb9-71">
          <mxGeometry x="90" y="61" width="60" height="30" as="geometry" />
        </mxCell>
        <mxCell id="U4hycx1jHfNzgr4IUAb9-75" value="分类1" style="text;html=1;align=center;verticalAlign=middle;resizable=0;points=[];autosize=1;strokeColor=none;fillColor=none;" vertex="1" parent="U4hycx1jHfNzgr4IUAb9-71">
          <mxGeometry x="60" y="31" width="50" height="30" as="geometry" />
        </mxCell>
        <mxCell id="U4hycx1jHfNzgr4IUAb9-76" value="" style="rounded=0;whiteSpace=wrap;html=1;fillColor=none;dashed=1;" vertex="1" parent="U4hycx1jHfNzgr4IUAb9-71">
          <mxGeometry x="10" y="110" width="150" height="70" as="geometry" />
        </mxCell>
        <mxCell id="U4hycx1jHfNzgr4IUAb9-77" value="指标3" style="rounded=0;whiteSpace=wrap;html=1;" vertex="1" parent="U4hycx1jHfNzgr4IUAb9-71">
          <mxGeometry x="20" y="140" width="60" height="30" as="geometry" />
        </mxCell>
        <mxCell id="U4hycx1jHfNzgr4IUAb9-78" value="指标4" style="rounded=0;whiteSpace=wrap;html=1;" vertex="1" parent="U4hycx1jHfNzgr4IUAb9-71">
          <mxGeometry x="90" y="140" width="60" height="30" as="geometry" />
        </mxCell>
        <mxCell id="U4hycx1jHfNzgr4IUAb9-79" value="分类2" style="text;html=1;align=center;verticalAlign=middle;resizable=0;points=[];autosize=1;strokeColor=none;fillColor=none;" vertex="1" parent="U4hycx1jHfNzgr4IUAb9-71">
          <mxGeometry x="60" y="110" width="50" height="30" as="geometry" />
        </mxCell>
        <mxCell id="U4hycx1jHfNzgr4IUAb9-80" value="" style="rounded=1;whiteSpace=wrap;html=1;fillColor=none;" vertex="1" parent="U4hycx1jHfNzgr4IUAb9-71">
          <mxGeometry width="170" height="190" as="geometry" />
        </mxCell>
        <mxCell id="U4hycx1jHfNzgr4IUAb9-81" value="维度1" style="text;html=1;align=center;verticalAlign=middle;resizable=0;points=[];autosize=1;strokeColor=none;fillColor=none;" vertex="1" parent="U4hycx1jHfNzgr4IUAb9-71">
          <mxGeometry x="60" width="50" height="30" as="geometry" />
        </mxCell>
        <mxCell id="U4hycx1jHfNzgr4IUAb9-82" value="" style="group" vertex="1" connectable="0" parent="1">
          <mxGeometry x="560" y="260" width="170" height="190" as="geometry" />
        </mxCell>
        <mxCell id="U4hycx1jHfNzgr4IUAb9-83" value="" style="rounded=1;whiteSpace=wrap;html=1;fillColor=none;" vertex="1" parent="U4hycx1jHfNzgr4IUAb9-82">
          <mxGeometry width="170" height="190" as="geometry" />
        </mxCell>
        <mxCell id="U4hycx1jHfNzgr4IUAb9-84" value="" style="rounded=0;whiteSpace=wrap;html=1;fillColor=none;dashed=1;" vertex="1" parent="U4hycx1jHfNzgr4IUAb9-82">
          <mxGeometry x="10" y="31" width="150" height="70" as="geometry" />
        </mxCell>
        <mxCell id="U4hycx1jHfNzgr4IUAb9-85" value="指标5" style="rounded=0;whiteSpace=wrap;html=1;" vertex="1" parent="U4hycx1jHfNzgr4IUAb9-82">
          <mxGeometry x="20" y="61" width="60" height="30" as="geometry" />
        </mxCell>
        <mxCell id="U4hycx1jHfNzgr4IUAb9-86" value="指标6" style="rounded=0;whiteSpace=wrap;html=1;" vertex="1" parent="U4hycx1jHfNzgr4IUAb9-82">
          <mxGeometry x="90" y="61" width="60" height="30" as="geometry" />
        </mxCell>
        <mxCell id="U4hycx1jHfNzgr4IUAb9-87" value="分类3" style="text;html=1;align=center;verticalAlign=middle;resizable=0;points=[];autosize=1;strokeColor=none;fillColor=none;" vertex="1" parent="U4hycx1jHfNzgr4IUAb9-82">
          <mxGeometry x="60" y="31" width="50" height="30" as="geometry" />
        </mxCell>
        <mxCell id="U4hycx1jHfNzgr4IUAb9-88" value="" style="rounded=0;whiteSpace=wrap;html=1;fillColor=none;dashed=1;" vertex="1" parent="U4hycx1jHfNzgr4IUAb9-82">
          <mxGeometry x="10" y="110" width="150" height="70" as="geometry" />
        </mxCell>
        <mxCell id="U4hycx1jHfNzgr4IUAb9-89" value="指标7" style="rounded=0;whiteSpace=wrap;html=1;" vertex="1" parent="U4hycx1jHfNzgr4IUAb9-82">
          <mxGeometry x="20" y="140" width="60" height="30" as="geometry" />
        </mxCell>
        <mxCell id="U4hycx1jHfNzgr4IUAb9-90" value="指标8" style="rounded=0;whiteSpace=wrap;html=1;" vertex="1" parent="U4hycx1jHfNzgr4IUAb9-82">
          <mxGeometry x="90" y="140" width="60" height="30" as="geometry" />
        </mxCell>
        <mxCell id="U4hycx1jHfNzgr4IUAb9-91" value="分类4" style="text;html=1;align=center;verticalAlign=middle;resizable=0;points=[];autosize=1;strokeColor=none;fillColor=none;" vertex="1" parent="U4hycx1jHfNzgr4IUAb9-82">
          <mxGeometry x="60" y="110" width="50" height="30" as="geometry" />
        </mxCell>
        <mxCell id="U4hycx1jHfNzgr4IUAb9-92" value="维度2" style="text;html=1;align=center;verticalAlign=middle;resizable=0;points=[];autosize=1;strokeColor=none;fillColor=none;" vertex="1" parent="U4hycx1jHfNzgr4IUAb9-82">
          <mxGeometry x="60" width="50" height="30" as="geometry" />
        </mxCell>
        <mxCell id="U4hycx1jHfNzgr4IUAb9-93" value="指标集" style="text;html=1;align=center;verticalAlign=middle;resizable=0;points=[];autosize=1;strokeColor=none;fillColor=none;" vertex="1" parent="1">
          <mxGeometry x="240" y="240" width="60" height="30" as="geometry" />
        </mxCell>
        <mxCell id="U4hycx1jHfNzgr4IUAb9-94" value="数据湖" style="text;html=1;align=center;verticalAlign=middle;resizable=0;points=[];autosize=1;strokeColor=none;fillColor=none;" vertex="1" parent="1">
          <mxGeometry x="240" y="470" width="60" height="30" as="geometry" />
        </mxCell>
        <mxCell id="U4hycx1jHfNzgr4IUAb9-95" value="组织架构" style="rounded=0;whiteSpace=wrap;html=1;" vertex="1" parent="1">
          <mxGeometry x="320" y="500" width="80" height="40" as="geometry" />
        </mxCell>
        <mxCell id="U4hycx1jHfNzgr4IUAb9-96" value="监控系统" style="rounded=0;whiteSpace=wrap;html=1;" vertex="1" parent="1">
          <mxGeometry x="434" y="500" width="80" height="40" as="geometry" />
        </mxCell>
        <mxCell id="U4hycx1jHfNzgr4IUAb9-97" value="服务管理平台" style="rounded=0;whiteSpace=wrap;html=1;" vertex="1" parent="1">
          <mxGeometry x="548" y="500" width="80" height="40" as="geometry" />
        </mxCell>
        <mxCell id="U4hycx1jHfNzgr4IUAb9-98" value="云平台" style="rounded=0;whiteSpace=wrap;html=1;" vertex="1" parent="1">
          <mxGeometry x="662" y="500" width="80" height="40" as="geometry" />
        </mxCell>
        <mxCell id="U4hycx1jHfNzgr4IUAb9-99" value="CMDB" style="rounded=0;whiteSpace=wrap;html=1;" vertex="1" parent="1">
          <mxGeometry x="776" y="500" width="80" height="40" as="geometry" />
        </mxCell>
        <mxCell id="U4hycx1jHfNzgr4IUAb9-100" value="日志平台" style="rounded=0;whiteSpace=wrap;html=1;" vertex="1" parent="1">
          <mxGeometry x="890" y="500" width="80" height="40" as="geometry" />
        </mxCell>
        <mxCell id="U4hycx1jHfNzgr4IUAb9-101" value="IDB" style="rounded=0;whiteSpace=wrap;html=1;" vertex="1" parent="1">
          <mxGeometry x="320" y="560" width="80" height="40" as="geometry" />
        </mxCell>
        <mxCell id="U4hycx1jHfNzgr4IUAb9-102" value="Gitlab" style="rounded=0;whiteSpace=wrap;html=1;" vertex="1" parent="1">
          <mxGeometry x="434" y="560" width="80" height="40" as="geometry" />
        </mxCell>
        <mxCell id="U4hycx1jHfNzgr4IUAb9-103" value="SIC" style="rounded=0;whiteSpace=wrap;html=1;" vertex="1" parent="1">
          <mxGeometry x="548" y="560" width="80" height="40" as="geometry" />
        </mxCell>
        <mxCell id="U4hycx1jHfNzgr4IUAb9-104" value="CI/CD" style="rounded=0;whiteSpace=wrap;html=1;" vertex="1" parent="1">
          <mxGeometry x="662" y="560" width="80" height="40" as="geometry" />
        </mxCell>
        <mxCell id="U4hycx1jHfNzgr4IUAb9-105" value="Sonar" style="rounded=0;whiteSpace=wrap;html=1;" vertex="1" parent="1">
          <mxGeometry x="776" y="560" width="80" height="40" as="geometry" />
        </mxCell>
        <mxCell id="U4hycx1jHfNzgr4IUAb9-106" value="测试平台" style="rounded=0;whiteSpace=wrap;html=1;" vertex="1" parent="1">
          <mxGeometry x="890" y="560" width="80" height="40" as="geometry" />
        </mxCell>
        <mxCell id="U4hycx1jHfNzgr4IUAb9-107" value="" style="rounded=0;whiteSpace=wrap;html=1;fillColor=#dae8fc;strokeColor=#6c8ebf;" vertex="1" parent="1">
          <mxGeometry x="240" y="160" width="760" height="80" as="geometry" />
        </mxCell>
        <mxCell id="U4hycx1jHfNzgr4IUAb9-108" value="分析展示" style="text;html=1;align=center;verticalAlign=middle;resizable=0;points=[];autosize=1;strokeColor=none;fillColor=none;" vertex="1" parent="1">
          <mxGeometry x="240" y="160" width="70" height="30" as="geometry" />
        </mxCell>
        <mxCell id="U4hycx1jHfNzgr4IUAb9-109" value="趋势分析" style="rounded=0;whiteSpace=wrap;html=1;" vertex="1" parent="1">
          <mxGeometry x="320" y="180" width="80" height="40" as="geometry" />
        </mxCell>
        <mxCell id="U4hycx1jHfNzgr4IUAb9-110" value="对比分析" style="rounded=0;whiteSpace=wrap;html=1;" vertex="1" parent="1">
          <mxGeometry x="463" y="180" width="80" height="40" as="geometry" />
        </mxCell>
        <mxCell id="U4hycx1jHfNzgr4IUAb9-111" value="聚类分析" style="rounded=0;whiteSpace=wrap;html=1;" vertex="1" parent="1">
          <mxGeometry x="605" y="180" width="80" height="40" as="geometry" />
        </mxCell>
        <mxCell id="U4hycx1jHfNzgr4IUAb9-112" value="下钻分析" style="rounded=0;whiteSpace=wrap;html=1;" vertex="1" parent="1">
          <mxGeometry x="748" y="180" width="80" height="40" as="geometry" />
        </mxCell>
        <mxCell id="U4hycx1jHfNzgr4IUAb9-113" value="因子分析" style="rounded=0;whiteSpace=wrap;html=1;" vertex="1" parent="1">
          <mxGeometry x="890" y="180" width="80" height="40" as="geometry" />
        </mxCell>
      </root>
    </mxGraphModel>
  </diagram>
</mxfile>
